<?xml version="1.0" standalone="no"?>
<!DOCTYPE svg PUBLIC "-//W3C//DTD SVG 20010904//EN"
 "http://www.w3.org/TR/2001/REC-SVG-20010904/DTD/svg10.dtd">
<svg version="1.0" xmlns="http://www.w3.org/2000/svg"
 width="500.000000pt" height="500.000000pt" viewBox="0 0 500.000000 500.000000"
 preserveAspectRatio="xMidYMid meet">
<metadata>
Created by potrace 1.11, written by Peter Selinger 2001-2013
</metadata>
<g transform="translate(0.000000,500.000000) scale(0.100000,-0.100000)"
fill="#000000" stroke="none">
<path d="M4858 3988 c-43 -35 -24 -98 34 -113 30 -8 68 22 68 53 0 23 -29 64
-41 57 -5 -4 -9 -1 -9 4 0 15 -33 14 -52 -1z m14 -49 c-3 -28 -7 -37 -13 -28
-13 21 -11 57 4 62 6 3 12 6 12 6 0 1 -1 -18 -3 -40z m38 10 c0 -5 -7 -9 -15
-9 -15 0 -20 12 -9 23 8 8 24 -1 24 -14z m22 -21 c-7 -7 -12 -8 -12 -2 0 6 3
14 7 17 3 4 9 5 12 2 2 -3 -1 -11 -7 -17z m-22 -23 c0 -8 -4 -15 -10 -15 -5 0
-10 7 -10 15 0 8 5 15 10 15 6 0 10 -7 10 -15z"/>
<path d="M2945 3919 c-16 -15 -48 -52 -70 -83 -22 -31 -50 -69 -62 -84 -13
-15 -37 -54 -55 -87 l-33 -60 -8 55 c-19 128 -31 173 -54 201 -22 25 -32 29
-77 29 -38 0 -57 -5 -68 -17 -20 -24 -128 -208 -128 -218 0 -5 -20 -52 -44
-104 -82 -183 -106 -238 -106 -250 0 -6 -11 -33 -24 -59 -39 -77 -96 -230 -96
-257 0 -31 45 -74 77 -75 56 0 78 25 124 140 12 30 29 73 39 95 10 23 27 68
38 101 30 92 134 334 144 334 4 0 8 -3 9 -7 0 -5 2 -21 5 -38 2 -16 6 -70 8
-118 2 -69 8 -95 23 -115 27 -36 63 -48 109 -36 34 8 42 18 84 95 26 48 65
113 87 145 22 33 53 82 69 109 l29 50 3 -32 c2 -17 -4 -67 -13 -110 -9 -43
-18 -96 -21 -118 -3 -22 -9 -51 -14 -65 -22 -59 -35 -150 -30 -208 4 -54 9
-68 32 -87 38 -33 94 -22 127 24 23 32 57 191 66 307 3 43 10 99 15 124 5 25
12 83 14 130 3 47 8 104 12 128 8 56 -11 132 -42 165 -22 24 -31 27 -82 25
-45 -2 -63 -8 -87 -29z"/>
<path d="M4675 3890 c-11 -5 -62 -9 -114 -9 -173 -2 -216 -30 -226 -151 -8
-101 -13 -157 -19 -205 -3 -22 -8 -63 -11 -92 -3 -29 -10 -75 -16 -103 -17
-80 -17 -83 -1 -108 32 -49 111 -69 180 -45 47 15 83 20 187 24 51 2 64 7 89
31 26 26 27 30 14 51 -28 42 -65 52 -180 50 -77 -1 -106 2 -103 10 2 7 6 38 9
71 3 32 7 60 8 62 2 2 38 8 79 14 102 15 149 31 166 56 12 18 11 24 -7 46 -23
30 -67 41 -156 39 l-62 -1 3 47 c1 27 3 51 4 55 0 5 39 8 85 7 73 -1 91 3 142
28 65 31 76 56 43 92 -34 37 -75 48 -114 31z"/>
<path d="M3421 3869 c-70 -15 -117 -70 -151 -177 -12 -37 -32 -92 -45 -122
-53 -131 -65 -169 -70 -239 -3 -40 -13 -92 -20 -115 -8 -22 -18 -63 -21 -91
-5 -41 -3 -53 12 -66 66 -56 94 -23 176 203 8 20 20 29 51 36 23 5 50 13 60
17 15 6 17 -1 17 -83 0 -73 4 -98 20 -125 37 -62 107 -74 144 -24 16 22 20 41
19 100 -1 111 -13 367 -19 417 -3 25 -7 72 -10 105 -3 39 -14 75 -30 102 -14
24 -26 43 -28 43 -2 0 -19 6 -37 13 -22 9 -46 11 -68 6z m21 -214 c3 -13 6
-63 7 -109 2 -95 -1 -100 -72 -105 -48 -3 -54 12 -27 73 11 26 20 59 20 73 0
67 61 125 72 68z"/>
<path d="M3741 3853 c-5 -10 -12 -49 -15 -88 -15 -200 -46 -392 -73 -463 -16
-42 -16 -47 2 -98 10 -29 29 -63 41 -75 22 -20 27 -21 63 -10 58 17 80 61 97
196 10 78 32 110 106 153 l38 21 25 -44 c29 -49 42 -89 50 -153 6 -53 26 -102
49 -121 26 -22 96 -18 116 7 28 35 17 150 -23 231 -17 36 -35 68 -39 69 -5 2
-8 8 -8 13 0 5 -11 27 -25 49 l-26 41 79 77 c72 71 79 81 74 110 -5 40 -32 56
-93 54 -59 -1 -89 -19 -194 -120 -47 -45 -85 -81 -86 -79 0 1 -3 38 -5 82 -3
44 -10 90 -16 103 -26 51 -117 81 -137 45z"/>
<path d="M876 3799 c-37 -29 -50 -58 -47 -104 1 -22 4 -87 6 -145 3 -58 7
-123 10 -145 3 -22 7 -78 10 -125 11 -200 16 -253 30 -320 8 -39 20 -80 26
-91 16 -30 70 -59 111 -59 44 0 74 31 117 125 16 34 33 65 38 68 5 3 19 -14
32 -38 30 -56 86 -95 139 -98 46 -1 66 12 91 62 18 35 67 194 76 244 3 13 12
41 20 60 8 20 17 51 20 69 3 18 30 104 59 191 59 175 60 200 8 252 -45 45 -74
31 -130 -62 -22 -38 -52 -107 -67 -153 -15 -47 -35 -110 -45 -140 -31 -94 -60
-195 -60 -210 -1 -8 -10 10 -20 40 -26 73 -47 90 -99 80 -58 -10 -81 -30 -123
-101 -39 -65 -45 -63 -38 11 5 42 3 111 -4 200 -4 47 -9 123 -11 169 -5 99
-22 187 -42 218 -20 30 -71 31 -107 2z"/>
<path d="M2020 3746 c-6 -5 -94 -15 -189 -22 -39 -2 -71 -10 -82 -20 -15 -13
-34 -67 -46 -127 -1 -10 -19 -59 -38 -108 -19 -50 -35 -97 -35 -104 0 -7 -16
-55 -36 -107 -19 -51 -41 -126 -48 -166 -12 -67 -12 -76 7 -113 36 -73 91 -81
227 -34 36 13 81 26 101 29 44 8 79 39 79 71 0 18 -11 32 -42 51 -45 28 -85
32 -145 15 -18 -5 -33 -6 -33 -2 0 5 11 37 23 71 27 70 39 78 167 106 66 14
110 47 110 80 0 20 -53 74 -74 75 -9 1 -26 2 -38 3 -13 2 -38 -3 -57 -11 -44
-17 -44 -17 -36 15 7 28 11 45 21 99 6 33 12 36 94 47 109 14 133 20 152 35
16 13 19 24 14 47 -4 16 -12 36 -19 45 -12 16 -68 34 -77 25z"/>
<path d="M4600 3058 c-318 -59 -334 -70 -345 -235 -9 -131 -14 -168 -40 -252
-22 -74 -36 -188 -37 -303 -1 -54 26 -113 66 -142 20 -16 41 -21 79 -19 332
10 330 9 325 76 -2 32 -10 46 -39 69 -33 26 -43 29 -125 31 l-89 2 2 70 c1 39
8 88 16 110 13 37 17 40 53 41 46 2 157 30 196 50 59 30 62 78 11 133 -41 43
-45 43 -156 21 -33 -6 -60 -10 -62 -8 -7 7 -12 146 -6 155 9 14 49 22 143 29
174 12 231 59 159 132 -37 36 -91 51 -151 40z"/>
<path d="M3477 2934 c-3 -3 -49 -7 -102 -9 -54 -2 -134 -8 -179 -14 -142 -18
-269 -31 -350 -36 -143 -10 -320 -55 -340 -87 -14 -23 19 -92 53 -108 58 -27
81 -29 151 -11 38 10 71 17 73 14 3 -2 -1 -28 -8 -56 -8 -29 -16 -110 -19
-182 -7 -152 -13 -218 -27 -300 -22 -129 -22 -187 3 -229 13 -21 38 -47 57
-57 29 -15 38 -16 65 -5 17 7 36 23 43 37 18 38 43 207 40 279 -2 66 8 250 20
350 3 30 7 84 7 120 1 36 6 65 11 66 6 0 41 4 79 8 38 4 102 9 142 9 l74 2 -5
-50 c-9 -89 -15 -140 -20 -165 -22 -121 -38 -471 -23 -505 13 -30 56 -45 103
-36 52 10 82 27 89 48 9 33 19 128 21 203 1 41 5 93 9 115 4 22 9 65 11 95 2
30 8 76 13 101 8 41 8 71 2 104 -1 6 -2 34 -1 63 l1 52 36 0 c59 0 123 21 154
50 l30 28 0 -26 c0 -15 -5 -45 -10 -67 -11 -48 -17 -83 -24 -150 -4 -27 -11
-70 -16 -95 -42 -192 -57 -315 -46 -376 7 -34 47 -85 83 -103 33 -17 62 -13
143 18 60 23 99 30 190 36 127 8 147 14 156 50 7 28 -17 65 -61 91 -33 20
-134 24 -237 10 -32 -4 -58 -4 -58 1 1 4 5 28 10 53 6 25 12 72 15 105 6 63
21 173 30 215 13 66 18 112 19 189 1 75 -1 88 -21 112 -56 67 -163 51 -163
-25 0 -18 -3 -17 -19 10 -25 42 -32 45 -99 49 -31 2 -67 6 -79 9 -11 2 -23 2
-26 0z"/>
<path d="M2270 2832 c-38 -10 -64 -30 -96 -75 -42 -58 -169 -309 -178 -352 -4
-16 -20 -55 -35 -85 -16 -30 -34 -77 -40 -104 -7 -28 -23 -73 -36 -100 -13
-28 -26 -62 -30 -76 -5 -14 -20 -50 -36 -80 -15 -30 -33 -83 -40 -118 -11 -61
-12 -62 -33 -49 -37 25 -115 29 -210 13 -100 -18 -119 -19 -113 -8 3 4 10 49
16 101 7 52 16 101 20 110 6 10 28 16 68 18 163 8 271 70 248 143 -12 39 -125
67 -190 48 -16 -5 -47 -11 -68 -14 -34 -4 -38 -3 -33 13 13 44 23 143 25 266
1 25 4 27 44 27 24 0 66 7 93 15 27 8 59 15 71 15 35 0 68 19 87 51 20 35 10
61 -32 83 -31 16 -192 27 -232 16 -14 -4 -45 -1 -70 7 -60 17 -63 17 -92 -12
-27 -27 -57 -144 -57 -222 0 -22 -4 -58 -10 -80 -20 -77 -68 -330 -76 -408 -4
-32 -8 -63 -11 -66 -2 -4 -7 -40 -10 -80 -2 -40 -6 -75 -9 -77 -7 -8 29 -98
48 -120 24 -26 84 -44 124 -38 15 3 51 8 78 11 28 3 77 12 110 20 33 7 76 17
95 20 67 12 111 37 117 67 4 23 8 26 24 18 27 -15 87 -12 123 5 24 12 39 31
59 76 15 33 27 64 27 69 0 5 12 32 26 60 14 29 27 58 28 66 4 26 8 28 96 37
25 3 71 9 103 13 52 6 57 5 58 -12 1 -62 9 -115 18 -133 6 -11 11 -29 11 -40
0 -32 41 -52 110 -54 85 -3 93 9 86 128 -3 50 -7 108 -10 130 -2 22 -7 78 -10
123 -3 46 -8 87 -10 90 -2 4 -7 38 -10 77 -8 91 -26 244 -31 270 -2 11 -4 26
-4 33 -1 7 -15 27 -31 45 -17 17 -40 47 -50 65 -25 40 -80 65 -120 54z m16
-424 c2 -62 6 -127 8 -145 5 -35 1 -37 -93 -48 -24 -3 -48 -8 -52 -11 -18 -10
-8 32 16 74 14 24 43 91 66 148 23 57 44 102 47 100 2 -3 6 -56 8 -118z"/>
<path d="M638 2721 c-72 -23 -125 -64 -165 -130 -98 -160 -87 -341 30 -470 40
-45 166 -135 242 -174 82 -43 146 -112 176 -192 21 -55 14 -181 -12 -243 -24
-55 -89 -146 -133 -185 -67 -60 -188 -105 -289 -109 -47 -1 -52 1 -93 44 -26
28 -47 62 -54 88 -15 56 -4 170 22 231 16 39 29 52 76 76 71 37 89 68 69 116
-19 45 -73 70 -135 64 -70 -6 -146 -31 -191 -60 -72 -48 -125 -168 -137 -306
-12 -156 31 -225 225 -353 126 -84 188 -103 336 -103 101 1 131 5 185 25 73
26 149 73 198 121 60 59 161 236 178 312 10 43 11 231 2 271 -8 35 -40 94 -83
155 -38 54 -130 128 -245 195 -154 92 -181 122 -181 207 0 54 19 124 47 166
17 27 95 69 147 78 34 7 42 3 104 -46 59 -46 73 -53 115 -53 87 -1 128 55 92
126 -34 67 -121 123 -224 145 -58 12 -267 15 -302 4z"/>
<path d="M4220 1884 c-30 -8 -84 -14 -120 -14 -56 1 -142 -12 -240 -35 -14 -3
-45 -8 -70 -10 -98 -10 -117 -13 -170 -24 -67 -13 -111 -18 -215 -26 -210 -15
-389 -32 -437 -41 -14 -3 -59 -7 -100 -10 -93 -5 -161 -11 -218 -20 -25 -3
-58 -8 -75 -10 -58 -7 -100 -15 -135 -24 -48 -13 -82 -18 -170 -25 -41 -4
-109 -13 -150 -20 -41 -7 -120 -21 -175 -30 -55 -9 -143 -27 -195 -41 -52 -14
-104 -26 -115 -28 -11 -2 -79 -16 -151 -31 -73 -14 -141 -27 -154 -28 -28 -2
-100 -64 -100 -86 0 -10 8 -29 19 -42 25 -32 61 -105 61 -123 0 -7 13 -28 29
-45 34 -36 65 -39 119 -12 20 10 71 29 112 41 41 13 79 27 84 31 6 5 24 9 42
9 17 0 76 18 130 41 65 27 129 45 192 55 52 8 101 19 108 25 8 6 14 9 14 6 0
-4 18 0 40 8 40 14 71 20 165 31 28 3 91 17 140 31 101 28 112 31 175 39 91
13 142 24 157 36 7 5 18 8 25 5 7 -2 20 -1 28 4 9 4 36 10 60 14 25 3 77 13
115 20 39 8 86 17 105 19 84 12 260 29 315 32 93 4 150 11 189 24 19 6 54 9
78 7 23 -2 58 0 78 4 19 5 105 20 190 34 85 15 169 32 185 40 17 7 56 16 88
19 31 4 74 13 95 20 20 8 65 17 100 20 97 9 134 46 95 95 -19 23 -50 27 -163
21 -30 -1 -71 0 -90 3 -19 3 -60 -1 -90 -9z"/>
</g>
</svg>
