<?xml version="1.0" encoding="utf-8"?>
<!-- Generator: Adobe Illustrator 19.2.0, SVG Export Plug-In . SVG Version: 6.00 Build 0)  -->
<svg version="1.1" id="Layer_1" xmlns:sketch="http://www.bohemiancoding.com/sketch/ns"
	 xmlns="http://www.w3.org/2000/svg" xmlns:xlink="http://www.w3.org/1999/xlink" x="0px" y="0px" viewBox="0 0 47 46"
	 style="enable-background:new 0 0 47 46;" xml:space="preserve">
<style type="text/css">
	.st0{fill:#72AC94;}
</style>
<title>Group 4</title>
<desc>Created with Sketch.</desc>
<g id="Welcome" sketch:type="MSPage">
	<g id="Desktop-HD" transform="translate(-1281.000000, -69.000000)" sketch:type="MSArtboardGroup">
		<g id="Group-4" transform="translate(1281.000000, 69.000000)" sketch:type="MSLayerGroup">
			<g id="Group-5-Copy" sketch:type="MSShapeGroup">
				<path id="Fill-1" class="st0" d="M46.9,5.5c-0.1-0.3-0.3-0.5-0.6-0.6L35.4,0.1c-0.6-0.3-1.3,0-1.5,0.6L22.2,27.6
					c0,0,0,0.1,0,0.1c0,0,0,0.1,0,0.1c0,0,0,0,0,0.1c0,0.1,0,0.1,0,0.2v0c0,0.1,0,0.1,0,0.2c0,0,0,0,0,0.1c0,0.1,0,0.1,0,0.2
					c0,0,0,0,0,0l2.7,7c0.2,0.4,0.6,0.7,1.1,0.7c0.1,0,0.2,0,0.2,0l8-1.8c0.4-0.1,0.7-0.3,0.8-0.7L46.9,6.4C47,6.1,47,5.8,46.9,5.5
					L46.9,5.5z M35.5,2.7l8.8,3.9l-1.2,2.8l-8.8-3.9L35.5,2.7z M29.4,33.2c-0.1-0.1-0.1-0.1-0.2-0.1L26,31.6c-0.1,0-0.1,0-0.2-0.1
					l-0.5-1.3l5.6,2.5L29.4,33.2z M33.6,31.4l-8.8-4l8.6-19.9l8.8,3.9L33.6,31.4z"/>
				<path id="Fill-2" class="st0" d="M23.8,37.6c-1.5,0-2.5,0.9-3.5,1.7c-0.8,0.7-1.5,1.3-2.3,1.3c-0.7,0-1.1-0.4-1.8-1.1
					c-0.9-0.8-1.9-1.9-3.8-1.9c-1.5,0-2.5,0.9-3.5,1.7c-0.8,0.7-1.5,1.3-2.3,1.3c-0.7,0-1.1-0.4-1.8-1.1c-0.9-0.8-1.9-1.9-3.8-1.9
					c-0.6,0-1.1,0.6-1.1,1.3s0.5,1.3,1.1,1.3c1,0,1.6,0.6,2.3,1.3c0.8,0.8,1.7,1.7,3.2,1.7c1.5,0,2.6-0.9,3.6-1.8
					c0.8-0.7,1.5-1.2,2.2-1.2c1,0,1.6,0.6,2.3,1.3c0.8,0.8,1.7,1.7,3.2,1.7c1.5,0,2.6-0.9,3.6-1.8c0.8-0.7,1.5-1.2,2.2-1.2
					c0.6,0,1.1-0.6,1.1-1.3C24.9,38.2,24.4,37.6,23.8,37.6L23.8,37.6z"/>
				<path id="Fill-3" class="st0" d="M23.8,40.4c-1.5,0-2.5,0.9-3.5,1.7c-0.8,0.7-1.5,1.3-2.3,1.3c-0.7,0-1.1-0.4-1.8-1.1
					c-0.9-0.8-1.9-1.9-3.8-1.9c-1.5,0-2.5,0.9-3.5,1.7c-0.8,0.7-1.5,1.3-2.3,1.3c-0.7,0-1.1-0.4-1.8-1.1c-0.9-0.8-1.9-1.9-3.8-1.9
					C0.5,40.4,0,41,0,41.7S0.5,43,1.1,43c1,0,1.6,0.6,2.3,1.3C4.2,45.1,5.2,46,6.7,46c1.5,0,2.6-0.9,3.6-1.8
					c0.8-0.7,1.5-1.2,2.2-1.2c1,0,1.6,0.6,2.3,1.3c0.8,0.8,1.7,1.7,3.2,1.7c1.5,0,2.6-0.9,3.6-1.8c0.8-0.7,1.5-1.2,2.2-1.2
					c0.6,0,1.1-0.6,1.1-1.3S24.4,40.4,23.8,40.4L23.8,40.4z"/>
			</g>
		</g>
	</g>
</g>
</svg>
