<?xml version="1.0" encoding="UTF-8" standalone="no"?>
<svg width="47px" height="46px" viewBox="0 0 47 46" version="1.1" xmlns="http://www.w3.org/2000/svg" xmlns:xlink="http://www.w3.org/1999/xlink" xmlns:sketch="http://www.bohemiancoding.com/sketch/ns">
    <!-- Generator: Sketch 3.5.2 (25235) - http://www.bohemiancoding.com/sketch -->
    <title>Group 4</title>
    <desc>Created with Sketch.</desc>
    <defs></defs>
    <g id="Welcome" stroke="none" stroke-width="1" fill="none" fill-rule="evenodd" sketch:type="MSPage">
        <g id="Desktop-HD" sketch:type="MSArtboardGroup" transform="translate(-1281.000000, -69.000000)" fill="#FFFFFF">
            <g id="Group-4" sketch:type="MSLayerGroup" transform="translate(1281.000000, 69.000000)">
                <g id="Group-5-Copy" sketch:type="MSShapeGroup">
                    <path d="M46.9206448,5.54134598 C46.8108127,5.25628705 46.5903856,5.02808622 46.3127544,4.90514975 L35.3814046,0.0967970813 C34.8040231,-0.158296093 34.1274875,0.108322375 33.8742634,0.690733901 L22.2129875,27.5892335 C22.1946821,27.6314929 22.1862922,27.6729839 22.1710377,27.7152434 C22.161885,27.7452091 22.1504442,27.7751749 22.1443424,27.8020672 C22.1412915,27.8205077 22.1412915,27.8412532 22.1382406,27.8619988 C22.1290879,27.9165518 22.120698,27.9734099 22.1176471,28.0271947 L22.1176471,28.0394883 C22.1176471,28.1086401 22.1237488,28.1800969 22.1351897,28.2492487 C22.1382406,28.2707625 22.1473933,28.2945815 22.1534951,28.315327 C22.1649359,28.3668066 22.1771395,28.4175179 22.1946821,28.4659242 C22.1946821,28.4682292 22.1946821,28.4682292 22.197733,28.4713026 L24.9359095,35.5101839 C25.1120986,35.9573653 25.5376982,36.2424242 25.9999085,36.2424242 C26.0799944,36.2424242 26.163894,36.233204 26.2470308,36.2155319 L34.2403706,34.4506252 C34.5980878,34.3722532 34.8963126,34.1263803 35.0450436,33.7867683 L46.909204,6.42341516 C47.0251379,6.14142963 47.0312397,5.82333151 46.9206448,5.54134598 L46.9206448,5.54134598 Z M35.5156439,2.66847436 L44.3495047,6.55557186 L43.1550801,9.30781208 L34.3212192,5.42071457 L35.5156439,2.66847436 Z M29.399366,33.1567189 C29.3337718,33.1060076 29.259025,33.0637481 29.1819899,33.0276356 L26.0357565,31.6438319 C25.9816031,31.620013 25.9251616,31.6054143 25.871771,31.5900472 L25.3531191,30.2577232 L30.9904068,32.8055816 L29.399366,33.1567189 Z M33.558496,31.4432918 L24.7635341,27.466297 L33.4036632,7.53368515 L42.237524,11.4207826 L33.558496,31.4432918 Z" id="Fill-1"></path>
                    <path d="M23.7792889,37.6363636 C22.3274619,37.6363636 21.2450434,38.5474464 20.2916598,39.35443 C19.4850074,40.0332253 18.7911683,40.6208264 17.9955759,40.6208264 C17.3422907,40.6208264 16.9102081,40.2276585 16.2075209,39.5350979 C15.3492545,38.6885395 14.2771588,37.6398049 12.4426512,37.6398049 C10.9908242,37.6398049 9.9084057,38.5508877 8.95502212,39.3570109 C8.14836965,40.0358063 7.45453056,40.6242677 6.65893823,40.6242677 C6.00565296,40.6242677 5.57651974,40.2310998 4.87088317,39.5385392 C4.01261675,38.6919808 2.94052106,37.6432462 1.10601344,37.6432462 C0.495494019,37.6432462 0,38.2213837 0,38.9337317 C0,39.6460797 0.495494019,40.2242172 1.10601344,40.2242172 C2.13460593,40.2242172 2.71341963,40.7920308 3.44486318,41.5147027 C4.21096182,42.2674858 5.16729477,43.2086799 6.65893823,43.2086799 C8.1682779,43.2086799 9.27429133,42.2778097 10.2512699,41.45448 C11.031378,40.7954721 11.7082582,40.2276585 12.4426512,40.2276585 C13.4712437,40.2276585 14.0500573,40.7954721 14.7815009,41.5181439 C15.5475995,42.2709271 16.5039325,43.2121212 17.9955759,43.2121212 C19.5049156,43.2121212 20.6109291,42.281251 21.5849582,41.4579213 C22.3650664,40.7989134 23.0419466,40.2310998 23.7763395,40.2310998 C24.3868589,40.2310998 24.8823529,39.6529623 24.8823529,38.9406143 C24.8823529,38.2282663 24.3898083,37.6363636 23.7792889,37.6363636 L23.7792889,37.6363636 Z" id="Fill-2"></path>
                    <path d="M23.7764706,40.4242424 C22.3248157,40.4242424 21.2425255,41.3353252 20.2892549,42.1423088 C19.482698,42.8211041 18.7889412,43.4087052 17.9934431,43.4087052 C17.3402353,43.4087052 16.9111529,43.0155373 16.2056,42.323837 C15.3474353,41.4764182 14.2754667,40.4276837 12.4411765,40.4276837 C10.9895216,40.4276837 9.90723137,41.3387665 8.95396078,42.1448897 C8.14740392,42.8245454 7.45364706,43.4121465 6.65814902,43.4121465 C6.00494118,43.4121465 5.57585882,43.0189786 4.87030588,42.326418 C4.01214118,41.4798595 2.94017255,40.431125 1.10588235,40.431125 C0.495435294,40.431125 0,41.0092625 0,41.7216105 C0,42.4339585 0.495435294,43.012096 1.10588235,43.012096 C2.13435294,43.012096 2.71309804,43.5799096 3.4444549,44.3025814 C4.21046275,45.0553646 5.16668235,45.9965587 6.65814902,45.9965587 C8.1673098,45.9965587 9.27319216,45.0656885 10.2500549,44.2423588 C11.0300706,43.5833509 11.7068706,43.0155373 12.4411765,43.0155373 C13.4696471,43.0155373 14.0483922,43.5833509 14.779749,44.3060227 C15.5457569,45.0588059 16.5019765,46 17.9934431,46 C19.5026039,46 20.6084863,45.0691298 21.585349,44.2458001 C22.3653647,43.5867922 23.0421647,43.0189786 23.7764706,43.0189786 C24.3869176,43.0189786 24.8823529,42.4408411 24.8823529,41.7284931 C24.8823529,41.0161451 24.3869176,40.4242424 23.7764706,40.4242424 L23.7764706,40.4242424 Z" id="Fill-3"></path>
                </g>
            </g>
        </g>
    </g>
</svg>