<?xml version="1.0" encoding="utf-8"?>
<!-- Generator: Adobe Illustrator 19.2.0, SVG Export Plug-In . SVG Version: 6.00 Build 0)  -->
<svg version="1.1" id="Layer_1" xmlns:sketch="http://www.bohemiancoding.com/sketch/ns"
	 xmlns="http://www.w3.org/2000/svg" xmlns:xlink="http://www.w3.org/1999/xlink" x="0px" y="0px" viewBox="0 0 43 42"
	 style="enable-background:new 0 0 43 42;" xml:space="preserve">
<style type="text/css">
	.st0{fill:#5067B5;}
</style>
<title>Group 3</title>
<desc>Created with Sketch.</desc>
<g id="Welcome" sketch:type="MSPage">
	<g id="Desktop-HD" transform="translate(-1047.000000, -70.000000)" sketch:type="MSArtboardGroup">
		<g id="Group-3" transform="translate(1047.000000, 70.000000)" sketch:type="MSLayerGroup">
			<path id="Page-1" sketch:type="MSShapeGroup" class="st0" d="M27.5,27.9c0,0-0.1,0-0.2,0.1c1-1,2.1-2,3.1-3
				C35.7,19.6,44,6.4,41.6,0.4c-6-2.4-19.2,5.9-24.6,11.3c-1,1-2,2-3,3.1c0-0.1,0.1-0.2,0.1-0.2S7.9,6.3,0,24.3c0,0,6.5-5.5,8.5-3.4
				c-1.4,1.6-2.2,2.6-2.2,2.6l0,0c-0.9,0.9,1.1,4.4,4.5,7.7c3.4,3.4,6.9,5.4,7.8,4.5c0,0,1-0.9,2.6-2.2h0c2.1,2.1-3.4,8.5-3.4,8.5
				C35.7,34.1,27.5,27.9,27.5,27.9L27.5,27.9z M29.7,12.3c-1.2-1.2-1.2-3.2,0-4.4c1.2-1.2,3.2-1.2,4.4,0c1.2,1.2,1.2,3.2,0,4.4
				C32.9,13.5,30.9,13.5,29.7,12.3L29.7,12.3z"/>
		</g>
	</g>
</g>
</svg>
