<?xml version="1.0" encoding="utf-8"?>
<!-- Generator: Adobe Illustrator 19.2.0, SVG Export Plug-In . SVG Version: 6.00 Build 0)  -->
<svg version="1.1" xmlns="http://www.w3.org/2000/svg" xmlns:xlink="http://www.w3.org/1999/xlink" x="0px" y="0px"
	 viewBox="0 0 105 30" style="enable-background:new 0 0 105 30;" xml:space="preserve">
<style type="text/css">
	.st0{fill:#FEFEFE;}
</style>
<g id="Layer_2">
</g>
<g id="Layer_1" xmlns:sketch="http://www.bohemiancoding.com/sketch/ns">
	<title>Fill 7</title>
	<desc>Created with Sketch.</desc>
	<g>
		<path class="st0" d="M104.1,13.5H88.9c0,0,2.5-10-8.5-8.5V0.5h-8.5v4L31.6,4.8V0.5h-8.5v3.8c-10.5-0.2-7.5,9.2-7.5,9.2H0.1
			C-0.1,24,11.1,29,11.1,29h81C92.1,29,104.9,27,104.1,13.5z M38,13.8H22.4c0,0-0.3-6.7,2.3-6.7h11C39.1,7.2,38,13.8,38,13.8z
			 M58.4,13.8H42.7c0,0-0.3-6.7,2.3-6.7h11C59.4,7.2,58.4,13.8,58.4,13.8z M78.7,13.8H63c0,0-0.3-6.7,2.3-6.7h11
			C79.8,7.2,78.7,13.8,78.7,13.8z"/>
	</g>
</g>
</svg>
