<?xml version="1.0" encoding="UTF-8"?>
<!-- Generator: Adobe Illustrator 19.2.0, SVG Export Plug-In . SVG Version: 6.00 Build 0)  -->
<svg version="1.1" id="Layer_1" xmlns:sketch="http://www.bohemiancoding.com/sketch/ns" xmlns="http://www.w3.org/2000/svg" xmlns:xlink="http://www.w3.org/1999/xlink" x="0px" y="0px" viewBox="0 0 40 40" style="enable-background:new 0 0 40 40;" xml:space="preserve">
<style type="text/css">
	.st0{fill:#FFFFFF;}
</style>
<title>Group 6</title>
<desc>Created with Sketch.</desc>
<g>
	<path class="st0" d="M0,0v40h40V0H0z M30,27h-5.2h0c-1,0-2.8-0.1-4.7-2c-1.1-1.2-1.7-2.8-1.7-4.7c0-1.8-0.4-3.1-1.2-3.8   c-0.5-0.5-1.1-0.5-1.1-0.5l-4.2,0v7.8H15c0.3,0,1.5-0.1,2.4-0.8c0.1-0.1,0,0,0.1-0.1c0.2,1.1,0.6,2.1,1.2,2.9c-0.1,0.1,0,0-0.1,0.1   C17,27,15.3,27,15,27h0H9V13h7.2c0.2,0,1.9,0,3.3,1.5c1.3,1.3,1.9,3.3,1.9,5.9c0,1.1,0.3,1.9,0.8,2.5c1,1,2.6,1.1,2.6,1.1H30V27z    M30,16.1h-5.3c-0.7,0-1.6,0.1-2.2,0.8c-0.1,0.1,0-0.1-0.1,0.1c-0.2-1.3-0.6-2.3-1.3-3.2c0.1-0.1,0,0,0.1-0.1   c1-0.7,2.1-0.7,3.5-0.7H30V16.1z"/>
</g>
</svg>