<?xml version="1.0" encoding="utf-8"?>
<!-- Generator: Adobe Illustrator 19.2.0, SVG Export Plug-In . SVG Version: 6.00 Build 0)  -->
<svg version="1.1" id="Layer_1" xmlns="http://www.w3.org/2000/svg" xmlns:xlink="http://www.w3.org/1999/xlink" x="0px" y="0px"
	 viewBox="0 0 180 95" style="enable-background:new 0 0 180 95;" xml:space="preserve">
<style type="text/css">
	.st0{fill:#FFFFFF;}
	.st1{fill:#676767;}
</style>
<rect x="0.6" y="-42.2" class="st0" width="178.9" height="178.9"/>
<g>
	<path class="st1" d="M-1.7-42.2v178.9h183.4V-42.2H-1.7z M135.8,78.6H112l0,0c-4.6,0-12.8-0.4-21.5-8.9c-5-5.4-7.8-12.5-7.8-21
		c0-8-1.8-13.9-5.5-17c-2.3-2.2-5-2.2-5-2.2H52.9v34.9h14.2c1.4,0,6.9-0.4,11-3.6c0.5-0.4,0,0,0.5-0.4c0.9,4.9,2.8,9.4,5.5,13
		c-0.5,0.4,0,0-0.5,0.4c-7.3,4.9-15.1,4.9-16.5,4.9l0,0H39.6V15.9h33c0.9,0,8.7,0,15.1,6.7c6,5.8,8.7,14.8,8.7,26.4
		c0,4.9,1.4,8.5,3.7,11.2c4.6,4.5,11.9,4.9,11.9,4.9h23.8V78.6z M135.8,29.8h-24.3c-3.2,0-7.3,0.4-10.1,3.6c-0.5,0.4,0-0.4-0.5,0.4
		c-0.9-5.8-2.8-10.3-6-14.3c0.5-0.4,0,0,0.5-0.4c4.6-3.1,9.6-3.1,16-3.1h24.3V29.8z"/>
</g>
</svg>
