<svg version="1.1" xmlns="http://www.w3.org/2000/svg" xmlns:xlink="http://www.w3.org/1999/xlink" style="display:none">
<defs>
  <g id="filter-logo">
    <path d="M0,0.2h22V5H5v8h15v5H5v12H0V0.2z"></path>
    <path d="M27,0.2h5V30h-5V0.2z"></path>
    <path d="M38.1,0.2H43v25.2h16V30H38.1V0.2z"></path>
    <path d="M64,5.1h-9V0.2h23.8v4.9H70V30h-6V5.1z"></path>
    <path d="M83.1,0.2H105V5H88v8h16v5H88v7h18v5H83.1V0.2z"></path>
    <path d="M111,0.2h12.9c3.8,0,6.7,1.1,8.7,3c1.6,1.6,2.4,3.9,2.4,6.5v0.1c0,4.9-2.9,7.9-7.1,9.1L136,30h-6.2l-7.4-10.3 h-6.6V30H111V0.2z M123.5,15.1c3.8,0,6.2-2,6.2-5V10c0-3.2-2.3-5-6.2-5h-7.7v10.1H123.5z"></path>
  </g>
  <g id="facebook-c">
    <path d="M12,0C5.4,0,0,5.4,0,12s5.4,12,12,12s12-5.4,12-12S18.6,0,12,0z M15.4,8.6h-1.8c-0.2,0-0.5,0.3-0.5,0.7v1.3h2.3L15,12.4 h-1.9V18H11v-5.6H9.1v-1.9H11V9.4c0-1.6,1.1-2.8,2.6-2.8h1.8V8.6z"></path>
  </g>
  <g id="twitter-c">
    <path d="M12,0C5.4,0,0,5.4,0,12s5.4,12,12,12s12-5.4,12-12S18.6,0,12,0z M16.9,9.8c0,0.1,0,0.2,0,0.3c0,3.1-2.4,6.7-6.7,6.7 c-1.3,0-2.6-0.4-3.6-1.1c0.2,0,0.4,0,0.6,0c1.1,0,2.1-0.4,2.9-1c-1,0-1.9-0.7-2.2-1.6c0.1,0,0.3,0,0.4,0c0.2,0,0.4,0,0.6-0.1 C7.8,12.9,7,12,7,10.8v0c0.3,0.2,0.7,0.3,1.1,0.3C7.4,10.7,7,9.9,7,9.1c0-0.4,0.1-0.8,0.3-1.2c1.2,1.4,2.9,2.4,4.9,2.5 c0-0.2-0.1-0.4-0.1-0.5c0-1.3,1.1-2.4,2.4-2.4c0.7,0,1.3,0.3,1.7,0.7c0.5-0.1,1-0.3,1.5-0.6c-0.2,0.6-0.5,1-1,1.3 c0.5-0.1,0.9-0.2,1.4-0.4C17.7,9.1,17.3,9.5,16.9,9.8z"></path>
  </g>
  <g id="linkedin-c">
    <path d="M12,0C5.4,0,0,5.4,0,12s5.4,12,12,12s12-5.4,12-12S18.6,0,12,0z M9.1,17H6.6V9.2h2.4V17z M7.8,8.3C7,8.3,6.4,7.7,6.4,7 c0-0.8,0.6-1.4,1.4-1.4c0.9,0,1.4,0.6,1.4,1.4C9.3,7.7,8.7,8.3,7.8,8.3z M17.9,17h-2.4v-4.3c0-1-0.4-1.7-1.2-1.7 c-0.7,0-1.1,0.5-1.2,0.9c-0.1,0.2-0.1,0.4-0.1,0.6V17h-2.4v-5.3c0-1,0-1.8-0.1-2.5h2.1l0.1,1.1h0C13,9.7,13.8,9,15.1,9 c1.6,0,2.8,1.1,2.8,3.4V17z"></path>
  </g>
  <g id="youtube-c">
    <path d="M14,11.8l-2.8-1.3c-0.2-0.1-0.4,0-0.4,0.3v2.5c0,0.3,0.2,0.4,0.4,0.3l2.8-1.3C14.2,12.1,14.2,11.9,14,11.8z M12,0 C5.4,0,0,5.4,0,12s5.4,12,12,12s12-5.4,12-12S18.6,0,12,0z M12,16.9c-6.1,0-6.2-0.6-6.2-4.9S5.9,7.1,12,7.1s6.3,0.6,6.3,4.9 S18.1,16.9,12,16.9z"></path>
  </g>
</defs>
</svg>