<?xml version="1.0" encoding="UTF-8" standalone="no"?>
<svg width="18px" height="23px" viewBox="0 0 18 23" version="1.1" xmlns="http://www.w3.org/2000/svg" xmlns:xlink="http://www.w3.org/1999/xlink" xmlns:sketch="http://www.bohemiancoding.com/sketch/ns">
    <!-- Generator: Sketch 3.5.2 (25235) - http://www.bohemiancoding.com/sketch -->
    <title>Path</title>
    <desc>Created with Sketch.</desc>
    <defs></defs>
    <g id="Welcome" stroke="none" stroke-width="1" fill="none" fill-rule="evenodd" sketch:type="MSPage">
        <g id="Contact-Us" sketch:type="MSArtboardGroup" transform="translate(-780.000000, -733.000000)" fill="#72AC94">
            <g id="Group-12" sketch:type="MSLayerGroup" transform="translate(780.000000, 729.000000)">
                <path d="M1.42123526,15.0033715 C2.33835842,16.6375694 4.10709593,17.6543074 7.09026576,17.9355328 C6.66445858,18.2526068 6.15298605,18.8546146 6.08243811,19.5505703 C5.54702968,19.8905131 4.47054378,20.0023852 3.63341694,19.7434106 C2.46055752,19.3799808 2.01144433,17.1011277 0.255304656,17.4256186 C-0.125150279,17.4960795 -0.0495632059,17.7420745 0.279240563,17.9509848 C0.814648999,18.2909276 1.31856282,18.7161652 1.70720636,19.6216492 C2.00577529,20.3169868 2.633148,21.5593233 4.61730868,21.5593233 C5.40467402,21.5593233 5.95645966,21.4666116 5.95645966,21.4666116 C5.95645966,21.4666116 5.97157707,23.2411131 5.97157707,23.930888 C5.97157707,24.7263542 4.87745419,24.9507164 4.87745419,25.3333066 C4.87745419,25.4847357 5.23964225,25.4989515 5.53065248,25.4989515 C6.10574413,25.4989515 7.30253945,25.0279762 7.30253945,24.200988 C7.30253945,23.5439713 7.31324762,21.334961 7.31324762,20.9486624 C7.31324762,20.1037499 7.77495866,19.8361222 7.77495866,19.8361222 C7.77495866,19.8361222 7.83227886,24.3462363 7.66472751,24.9507164 C7.46820112,25.661506 7.11357177,25.5607593 7.11357177,25.8778332 C7.11357177,26.3494266 8.55413541,25.9934138 9.03159376,24.9581334 C9.40071063,24.1521599 9.23945821,19.7279586 9.23945821,19.7279586 L9.63314088,19.7199236 C9.63314088,19.7199236 9.65518711,21.7453647 9.64195937,22.6712453 C9.62810174,23.6298841 9.56196305,24.8425528 10.1420938,25.4142748 C10.5231787,25.7900662 11.7590273,26.4495552 11.7590273,25.8469293 C11.7590273,25.4964792 11.0818931,25.2084549 11.0818931,24.2603235 L11.0818931,19.89793 C11.6223407,19.89793 11.5410846,21.3324887 11.5410846,21.3324887 L11.5807678,23.9976404 C11.5807678,23.9976404 11.4617182,24.9686407 12.6509548,25.3753359 C13.070463,25.5193481 13.9686894,25.558287 14.0108922,25.3166185 C14.053095,25.074332 12.9293672,24.7139926 12.9192889,23.9617919 C12.91299,23.5031781 12.9400753,23.2355504 12.9400753,21.2422493 C12.9400753,19.2489483 12.667332,18.5121995 11.7168245,17.9250255 C14.6502329,17.6289662 16.4655824,16.9168787 17.3505811,15.0095523 C17.4196851,15.0117789 17.7108465,14.1185941 17.6730859,14.1189021 C17.871502,13.3988414 17.9785837,12.5471301 18,11.5384271 C17.9949609,8.80343259 16.660849,7.83614075 16.4044829,7.38185353 C16.7824182,5.31129273 16.3414936,4.36872401 16.1367786,4.04546929 C15.3809079,3.78155005 13.5069784,4.72411877 12.4834034,5.38855246 C10.8141889,4.90954213 7.28679215,4.95589797 5.96401837,5.51216803 C3.52318579,3.797002 2.23190662,4.05968508 2.23190662,4.05968508 C2.23190662,4.05968508 1.39729936,5.52761998 2.01144433,7.67544051 C1.20833167,8.67981702 0.609934008,9.39060655 0.609934008,11.2745078 C0.609934008,12.3357475 0.737172248,13.2857332 1.02440313,14.1151936 C0.989192241,14.1151085 1.40962602,15.0036452 1.42123526,15.0033715 Z" id="Path" sketch:type="MSShapeGroup"></path>
            </g>
        </g>
    </g>
</svg>