<?xml version="1.0" encoding="UTF-8" standalone="no"?>
<svg width="18px" height="17px" viewBox="0 0 18 17" version="1.1" xmlns="http://www.w3.org/2000/svg" xmlns:xlink="http://www.w3.org/1999/xlink" xmlns:sketch="http://www.bohemiancoding.com/sketch/ns">
    <!-- Generator: Sketch 3.5.2 (25235) - http://www.bohemiancoding.com/sketch -->
    <title>Group 13</title>
    <desc>Created with Sketch.</desc>
    <defs></defs>
    <g id="Welcome" stroke="none" stroke-width="1" fill="none" fill-rule="evenodd" sketch:type="MSPage">
        <g id="Contact-Us" sketch:type="MSArtboardGroup" transform="translate(-780.000000, -779.000000)" fill="#72AC94">
            <g id="Group-14" sketch:type="MSLayerGroup" transform="translate(780.000000, 774.000000)">
                <g id="Group-13" transform="translate(0.000000, 5.000000)" sketch:type="MSShapeGroup">
                    <g id="Group-2">
                        <path d="M4.27773084,5.59893047 L0.569373003,5.59893047 L0.569373003,16.8009101 L4.27773084,16.8009101 L4.27773084,5.59893047 Z" id="Path"></path>
                        <path d="M4.52197265,2.13370627 C4.49790395,1.03535926 3.71667083,0.198792517 2.44806497,0.198792517 C1.17945911,0.198792517 0.350088593,1.03535926 0.350088593,2.13370627 C0.350088593,3.2093027 1.15494606,4.06995828 2.39992756,4.06995828 L2.42362598,4.06995828 C3.71667083,4.06995828 4.52197265,3.2093027 4.52197265,2.13370627 Z" id="Path"></path>
                        <path d="M17.6514879,10.3780373 C17.6514879,6.9372737 15.8220442,5.33588629 13.3817738,5.33588629 C11.4128797,5.33588629 10.5313727,6.4231554 10.0391862,7.18589431 L10.0391862,5.59922787 L6.330384,5.59922787 C6.37926199,6.65036372 6.330384,16.8012075 6.330384,16.8012075 L10.0391862,16.8012075 L10.0391862,10.5450979 C10.0391862,10.2103076 10.0632549,9.87633519 10.1613071,9.63663636 C10.4293214,8.96779932 11.0395556,8.27531953 12.0640678,8.27531953 C13.406509,8.27531953 13.94313,9.30251524 13.94313,10.8078447 L13.94313,16.8009101 L17.6513398,16.8009101 L17.6514879,10.3780373 Z" id="Path"></path>
                    </g>
                </g>
            </g>
        </g>
    </g>
</svg>