<?xml version="1.0" encoding="UTF-8" standalone="no"?>
<svg width="336px" height="121px" viewBox="0 0 336 121" version="1.1" xmlns="http://www.w3.org/2000/svg" xmlns:xlink="http://www.w3.org/1999/xlink" xmlns:sketch="http://www.bohemiancoding.com/sketch/ns">
    <!-- Generator: Sketch 3.5.2 (25235) - http://www.bohemiancoding.com/sketch -->
    <title>Group 7 Copy 2</title>
    <desc>Created with Sketch.</desc>
    <defs></defs>
    <g id="Welcome" stroke="none" stroke-width="1" fill="none" fill-rule="evenodd" sketch:type="MSPage">
        <g id="Desktop-HD" sketch:type="MSArtboardGroup" transform="translate(-372.000000, -27.000000)" fill="#FEFEFE">
            <g id="Group-7-Copy-2" sketch:type="MSLayerGroup" transform="translate(371.000000, 27.000000)">
                <path d="M93.1053013,34.5181741 C92.9260814,35.1930459 92.4332265,37.0997108 92.0106064,38.7546668 C91.5867754,40.4132707 91.0721234,42.1922571 90.8662627,42.7090509 C90.1021559,44.6303076 88.0847203,52.691074 87.2673319,57.0880768 C87.0287756,58.3672933 86.8047506,59.216051 86.7696332,58.970422 C86.7333048,58.7260089 86.6218978,58.4293085 86.5226003,58.30771 C86.4245137,58.1873275 86.0176359,58.0304654 85.6204457,57.9635862 C84.7001269,57.8067241 84.519696,57.5817668 83.6575027,55.4793283 L82.9478885,53.7501972 L83.4201573,52.937919 C83.6805106,52.4916524 84.2290691,51.53224 84.6407906,50.8075128 C85.0525122,50.0815696 85.9159165,48.6844025 86.5613506,47.6994544 C88.5969503,44.5926121 89.5523865,42.6263639 89.5475428,41.5648087 C89.5451209,40.5360852 88.983242,39.0975746 88.5170279,38.9163928 C84.4712582,37.1921257 82.9188258,36.0661233 79.6759131,34.772315 C78.9711426,34.5923492 78.3232867,34.3856317 78.2373095,34.3138885 C78.1489105,34.2397134 78.5025066,33.5563297 79.0207914,32.7939069 C79.655327,31.8575983 79.8914614,30.9370974 80.2716984,30.1722427 C80.6652557,29.3830682 80.6918965,29.3623965 81.1375246,29.0887998 C81.4560033,28.8942421 81.7720601,28.906402 82.1244454,28.7896674 C82.6257769,28.6230774 83.1888667,28.7325161 84.1321934,28.9562574 C84.7933698,29.1131195 85.8275174,29.2432299 86.4317794,29.2432299 C87.377528,29.2456619 87.6318266,29.3283489 88.2736278,29.8366307 C88.9735545,30.394768 89.0825396,30.4215197 90.1772345,30.3193769 C91.7756829,30.1698107 91.9452153,30.0773958 92.4538125,29.07056 C92.7868226,28.407848 93.0919809,28.0989878 93.670813,27.8375509 C95.0573459,27.2101025 95.0585568,27.2028066 93.1053013,34.5181741 M99.7703467,16.437689 C99.5293685,16.1689562 99.2363196,16.0643815 98.8451842,16.102077 C98.2142814,16.1640923 98.0701789,16.4899763 96.9633745,20.3020902 C96.2719245,21.9570461 96.3155185,22.4932956 94.8502742,22.5030235 C94.4676153,22.545583 94.2375356,22.7547325 93.9493305,23.3153017 C93.4346786,24.3148416 92.8292057,24.4036085 92.1026383,23.5840344 C91.6146271,23.0331931 91.5020092,22.9942816 90.6095422,23.0708887 C88.9941405,23.3627251 88.2239791,24.1579795 86.6097884,22.5905745 C86.2961534,22.3607533 85.6228676,21.9120547 85.4012645,21.4743 C85.1784505,21.0377613 84.4724691,20.1282043 83.8306679,19.4533325 C81.8459278,17.3703497 82.1704613,17.1028329 83.8439883,17.1028329 C85.9365025,16.8888195 85.4545461,16.0339819 85.7560716,15.0380899 C85.8723224,14.6538386 86.7732661,14.6781583 86.7236173,14.4325292 C86.6279526,13.1168332 86.8955716,12.306987 87.510732,11.8753122 C87.8619063,10.8417247 87.5397947,10.5973117 88.3971443,10.3127711 C89.1769934,9.86650454 87.4744036,8.10332588 86.1399414,7.70205074 C84.8296981,7.30807151 84.6359468,6.65751939 84.6359468,6.5578086 C84.6359468,6.45566583 84.4228204,6.08479032 84.163678,5.73093861 C83.9033246,5.37708689 84.2920382,4.17326147 84.186686,3.78171421 C84.0825446,3.38895097 83.8088709,2.94998028 83.5812131,2.80284606 C83.0629283,2.46845011 81.663075,1.84586565 78.0423473,0.802550283 L75.2511173,0 L73.9154442,0.321020113 C70.928041,1.04331537 71.2465197,0.822006047 70.6979613,2.56086499 C70.1542467,4.28270014 69.8720963,7.28253582 70.1966298,7.89296043 C70.3758498,8.22735638 70.3346776,8.2504601 69.6843997,8.18966084 C69.2278732,8.14710135 68.7095884,8.25775601 68.2191554,8.50946497 C67.5398148,8.85845274 67.4005561,9.05665834 66.866529,10.4574734 C65.5841375,13.8135927 61.1411775,27.1152557 60.9680123,28.1172276 C60.8759804,28.654693 60.9873874,29.0182726 61.5734852,30.0932036 C62.24556,31.3237807 62.3642327,31.4405153 63.3729505,31.8466544 C63.9675249,32.0862035 64.8648357,32.3281846 65.3673782,32.3901998 L66.2816422,32.4972065 L65.8444908,33.0833114 C65.6059345,33.4067635 65.2087443,34.2640331 64.9641332,34.9911923 C64.5838963,36.1123307 64.5160833,36.6984357 64.4979191,38.9455764 C65.5163245,41.5842645 65.2741353,44.1414815 65.169994,47.079302 L65.0089382,49.5088405 C64.8067103,51.4142895 64.3574494,52.8126725 63.2603326,55.8903313 C62.7444697,57.0783489 62.557984,57.8383397 62.3848188,59.4701919 C62.2613023,60.6095701 62.0191132,62.2511503 61.8435261,63.1181478 C61.6509857,64.3025174 61.3809448,64.8509268 61.04188,65.1841067 C60.7221903,65.4856711 58.9772175,68.0380242 59.0002255,68.8053109 C59.0232334,69.624885 59.0619837,69.6102932 60.0295293,70.5490338 C60.7415654,71.2397134 61.6945797,71.8027146 61.8423151,71.8027146 C61.9876286,71.8027146 62.3157949,72.1237347 62.5713044,72.515282 L62.9345882,73.0709872 C63.1125972,73.170698 63.2978719,73.258249 63.5013108,73.2971605 C63.6115068,73.3178323 63.7144372,73.3445839 63.8125238,73.3822795 C64.5112395,73.5221178 65.6289424,73.7434271 66.9585609,74 C66.9767251,73.997568 66.9948892,73.9951361 67.0118425,73.9951361 C67.5180178,74.0048639 67.9479035,73.8407059 68.3257186,73.5792691 C68.3305624,73.5744052 68.3354062,73.5695412 68.34025,73.5646773 C68.8403706,73.0685553 69.0208015,72.6101288 69.0389657,71.9170172 C68.6938461,71.1023071 68.3063435,70.8311424 67.3509073,70.7217037 L66.5274642,70.6292888 L66.2041417,69.2856251 C66.0273436,68.546306 65.8117953,67.8106349 65.7270291,67.6464769 C65.4763633,67.1673787 67.1268823,61.2601223 67.9854429,59.5674708 C68.1695066,59.2014592 68.6659944,57.98061 69.0910363,56.8497437 C69.5160783,55.7176614 70.1518248,54.4177731 70.5114757,53.9569147 C71.2223008,53.0400618 71.3676143,52.6558104 71.8314065,50.4706849 C72.3533242,48.8509925 73.1246966,47.4428816 73.6926301,45.8231892 C74.3550175,43.6830551 75.5175254,43.1990929 75.7076439,43.2076048 C78.6829376,43.4094584 80.4472855,44.0587945 81.1593216,44.3287433 C81.3930341,44.4503418 81.6085825,44.5719403 81.6376452,44.595044 C81.6679188,44.6193637 81.5238163,44.925792 81.3203774,45.2772118 C80.7149045,46.3095833 78.896064,50.8695281 78.6550858,51.3048508 L77.9103542,52.1900881 L77.1837867,53.0862692 C76.0152241,54.9357828 75.9752629,55.8976272 77.0263638,57.0394374 C77.8861353,57.975746 78.606648,58.4268766 79.276301,58.4463323 C79.5548185,58.4536282 80.0500953,58.8378796 80.6676776,59.5285592 L81.5722541,60.535395 C81.6376452,60.5743066 81.7042472,60.6120021 81.774482,60.6496976 C82.0408901,60.7943999 82.3605798,60.8162876 82.6548396,60.8783029 C83.2784766,61.0132772 83.9481296,60.9378862 84.5838762,60.9257263 C84.7921588,60.871007 84.9919649,60.7943999 85.1723958,60.6740174 C85.2402087,60.6290259 85.3055998,60.5974103 85.3673581,60.5816025 C85.4036864,60.5524188 85.4388038,60.5220192 85.4751322,60.4928355 C85.614391,60.3833969 85.7827124,60.3457013 85.9413463,60.3578612 C86.0539643,60.3031418 86.1847464,60.2727422 86.3433803,60.2703102 C87.1438155,60.2581504 87.9515163,60.2958459 88.7580061,60.3104378 C88.9069525,60.0611608 88.9783983,59.7048771 89.028047,59.5030235 C89.1309774,59.0871566 89.2036342,58.6615617 89.3428929,58.2554226 C89.4421905,57.811588 89.5778164,57.235211 89.7267627,56.6247864 C90.0294992,55.3942093 90.6676676,52.605955 91.1472021,50.4305574 C91.6255256,48.2551597 92.3133428,45.3319311 92.6754156,43.934764 C93.0362774,42.536381 93.7083523,39.9183647 94.1673008,38.1187065 C94.6262492,36.3178323 95.0416036,34.7796109 95.0900414,34.6981399 C95.1832842,34.5461417 96.6812241,29.5374984 97.0445078,28.162219 C97.1704462,27.6855528 97.4380652,27.2417182 97.7081061,27.0654003 C98.3656497,26.6337255 98.6235811,25.6499934 98.4819004,24.1202839 C98.3753372,22.9687459 98.4346736,22.5844945 98.9929195,20.8079401 C100.115466,17.2329433 100.177224,16.8912515 99.7703467,16.437689" id="Fill-7" sketch:type="MSShapeGroup"></path>
                <path d="M1,121 L38.2147952,40.258131 L73.6325463,62.0325241 L127.214489,33 L154.254915,66.568856 L184.42927,52.4517912 L219.070804,95.8396888 L254.356562,83.3557034 L269.796125,53.8671267 L308.178272,33 L337,121 L1,121 Z" id="Fill-9" sketch:type="MSShapeGroup"></path>
            </g>
        </g>
    </g>
</svg>