<?xml version="1.0" encoding="UTF-8" standalone="no"?>
<svg width="42px" height="42px" viewBox="0 0 42 42" version="1.1" xmlns="http://www.w3.org/2000/svg" xmlns:xlink="http://www.w3.org/1999/xlink" xmlns:sketch="http://www.bohemiancoding.com/sketch/ns">
    <!-- Generator: Sketch 3.5.2 (25235) - http://www.bohemiancoding.com/sketch -->
    <title>Group 2</title>
    <desc>Created with Sketch.</desc>
    <defs></defs>
    <g id="Welcome" stroke="none" stroke-width="1" fill="none" fill-rule="evenodd" sketch:type="MSPage">
        <g id="Desktop-HD" sketch:type="MSArtboardGroup" transform="translate(-819.000000, -69.000000)" fill="#D45A44">
            <g id="Group-2" sketch:type="MSLayerGroup" transform="translate(819.000000, 69.000000)">
                <path d="M-0.010965824,15.3727733 L3.64275369,22.8110456 L34.0109822,7.62820792 L30.3555038,0.188937603 L-0.010965824,15.3727733 Z M16.1741394,9.6972002 L19.5551202,8.00611754 L17.8236645,13.3029355 L14.4426837,14.9940181 L16.1741394,9.6972002 Z M10.8472864,16.8735664 L7.46772202,18.5627406 L9.19917778,13.2659227 L12.5801586,11.57484 L10.8472864,16.8735664 Z M23.1503957,6.12608419 L26.5319073,4.43685241 L24.8004515,9.73367032 L21.41894,11.4229021 L23.1503957,6.12608419 Z M5.61283631,15.1231955 L4.22040199,19.3818636 L2.81572673,16.5221654 L5.61283631,15.1231955 Z M28.3843315,7.87462374 L29.7767658,3.61595563 L31.1820274,6.47598653 L28.3843315,7.87462374 Z" id="Fill-1" sketch:type="MSShapeGroup"></path>
                <path d="M4.89617751,23.0126025 L10.2900058,41.8231172 L41.1038225,32.9873975 L35.7099942,14.1768828 L4.89617751,23.0126025 Z M36.1592053,25.3249923 L10.504738,32.6812924 L8.28925718,24.9549926 L33.9437245,17.5986925 L36.1592053,25.3249923 Z" id="Fill-2" sketch:type="MSShapeGroup"></path>
            </g>
        </g>
    </g>
</svg>