<?xml version="1.0" encoding="utf-8"?>
<!-- Generator: Adobe Illustrator 19.2.0, SVG Export Plug-In . SVG Version: 6.00 Build 0)  -->
<svg version="1.1" id="Layer_1" xmlns:sketch="http://www.bohemiancoding.com/sketch/ns"
	 xmlns="http://www.w3.org/2000/svg" xmlns:xlink="http://www.w3.org/1999/xlink" x="0px" y="0px" viewBox="0 0 42 42"
	 style="enable-background:new 0 0 42 42;" xml:space="preserve">
<style type="text/css">
	.st0{fill:#FFFFFF;}
</style>
<title>Group 2</title>
<desc>Created with Sketch.</desc>
<g id="Welcome" sketch:type="MSPage">
	<g id="Desktop-HD" transform="translate(-819.000000, -69.000000)" sketch:type="MSArtboardGroup">
		<g id="Group-2" transform="translate(819.000000, 69.000000)" sketch:type="MSLayerGroup">
			<path id="Fill-1" sketch:type="MSShapeGroup" class="st0" d="M0,15.4l3.7,7.4L34,7.6l-3.7-7.4L0,15.4z M16.2,9.7L19.6,8l-1.7,5.3
				L14.4,15L16.2,9.7z M10.8,16.9l-3.4,1.7l1.7-5.3l3.4-1.7L10.8,16.9z M23.2,6.1l3.4-1.7l-1.7,5.3l-3.4,1.7L23.2,6.1z M5.6,15.1
				l-1.4,4.3l-1.4-2.9L5.6,15.1z M28.4,7.9l1.4-4.3l1.4,2.9L28.4,7.9z"/>
			<path id="Fill-2" sketch:type="MSShapeGroup" class="st0" d="M4.9,23l5.4,18.8L41.1,33l-5.4-18.8L4.9,23z M36.2,25.3l-25.7,7.4
				L8.3,25l25.7-7.4L36.2,25.3z"/>
		</g>
	</g>
</g>
</svg>
