<?xml version="1.0" encoding="UTF-8" standalone="no"?>
<svg width="43px" height="42px" viewBox="0 0 43 42" version="1.1" xmlns="http://www.w3.org/2000/svg" xmlns:xlink="http://www.w3.org/1999/xlink" xmlns:sketch="http://www.bohemiancoding.com/sketch/ns">
    <!-- Generator: Sketch 3.5.2 (25235) - http://www.bohemiancoding.com/sketch -->
    <title>Group 3</title>
    <desc>Created with Sketch.</desc>
    <defs></defs>
    <g id="Welcome" stroke="none" stroke-width="1" fill="none" fill-rule="evenodd" sketch:type="MSPage">
        <g id="Desktop-HD" sketch:type="MSArtboardGroup" transform="translate(-1047.000000, -70.000000)" fill="#FFFFFF">
            <g id="Group-3" sketch:type="MSLayerGroup" transform="translate(1047.000000, 70.000000)">
                <path d="M27.45512,27.8789983 C27.45512,27.8789983 27.38288,27.9137183 27.28656,27.9557183 C28.31248,26.9863583 29.35184,25.9822783 30.35368,24.9804383 C35.72632,19.6100383 44.00144,6.39571829 41.61248,0.421638287 C35.64512,-1.96284171 22.42856,6.30611829 17.05368,11.6804383 C16.05184,12.6822783 15.05,13.7216383 14.0784,14.7475583 C14.12432,14.6512383 14.15064,14.5812383 14.15064,14.5812383 C14.15064,14.5812383 7.92736,6.31227829 0,24.3000383 C0,24.3000383 6.47024,18.8181983 8.52656,20.8767583 C7.16856,22.4301983 6.31064,23.4516383 6.31064,23.4516383 L6.31288,23.4538783 C5.42024,24.3504383 7.44632,27.8201983 10.83432,31.2020383 C14.2184,34.5900383 17.6904,36.6161183 18.58696,35.7279583 C18.58696,35.7279583 19.6084,34.8661183 21.16184,33.5075583 L21.16632,33.5075583 C23.21816,35.5638783 17.73632,42.0341183 17.73632,42.0341183 C35.7196,34.1089983 27.45512,27.8789983 27.45512,27.8789983 L27.45512,27.8789983 Z M29.69064,12.3216383 C28.4704,11.1030783 28.4704,9.13019829 29.69064,7.91611829 C30.90696,6.69531829 32.8804,6.69531829 34.0984,7.91611829 C35.31472,9.13187829 35.31472,11.1053183 34.0984,12.3216383 C32.8804,13.5401983 30.90472,13.5401983 29.69064,12.3216383 L29.69064,12.3216383 Z" id="Page-1" sketch:type="MSShapeGroup"></path>
            </g>
        </g>
    </g>
</svg>