<?xml version="1.0" encoding="utf-8"?>
<!-- Generator: Adobe Illustrator 19.2.0, SVG Export Plug-In . SVG Version: 6.00 Build 0)  -->
<svg version="1.1" id="Layer_1" xmlns="http://www.w3.org/2000/svg" xmlns:xlink="http://www.w3.org/1999/xlink" x="0px" y="0px"
	 viewBox="0 0 372 93" style="enable-background:new 0 0 372 93;" xml:space="preserve">
<style type="text/css">
	.st0{fill:#FFFFFF;}
</style>
<g>
	<polygon class="st0" points="50.7,43.6 41.1,43.6 41.1,33.1 37.3,33.1 37.3,43.6 27.6,43.6 27.6,47.3 37.3,47.3 37.3,57.9 
		41.1,57.9 41.1,47.3 50.7,47.3 	"/>
	<polygon class="st0" points="31.3,60.8 22.6,60.8 22.6,51.4 19.3,51.4 19.3,60.8 10.6,60.8 10.6,63.7 19.3,63.7 19.3,73.1 
		22.6,73.1 22.6,63.7 31.3,63.7 	"/>
	<polygon class="st0" points="67.7,27.1 59,27.1 59,17.6 55.7,17.6 55.7,27.1 47,27.1 47,30 55.7,30 55.7,39.3 59,39.3 59,30 
		67.7,30 	"/>
	<polygon class="st0" points="46.5,71.2 40.6,71.2 40.6,64.7 37.8,64.7 37.8,71.2 31.9,71.2 31.9,73.8 37.8,73.8 37.8,80.4 
		40.6,80.4 40.6,73.8 46.5,73.8 	"/>
	<polygon class="st0" points="31.3,27.1 22.5,27.1 22.5,17.6 19.4,17.6 19.4,27.1 10.6,27.1 10.6,29.9 19.4,29.9 19.4,39.3 
		22.5,39.3 22.5,29.9 31.3,29.9 	"/>
	<polygon class="st0" points="74.3,44.2 68.4,44.2 68.4,37.6 65.6,37.6 65.6,44.2 59.8,44.2 59.8,46.7 65.6,46.7 65.6,53.3 
		68.4,53.3 68.4,46.7 74.3,46.7 	"/>
	<polygon class="st0" points="67.7,60.8 59,60.8 59,51.4 55.7,51.4 55.7,60.8 47,60.8 47,63.7 55.7,63.7 55.7,73.1 59,73.1 59,63.7 
		67.7,63.7 	"/>
	<polygon class="st0" points="38.2,10.9 38.2,17.3 32.3,17.3 32.3,19.3 38.2,19.3 38.2,25.7 40.3,25.7 40.3,19.3 46.1,19.3 
		46.1,17.3 40.3,17.3 40.3,10.9 	"/>
	<polygon class="st0" points="17.7,44.5 11.8,44.5 11.8,38.1 9.8,38.1 9.8,44.5 3.9,44.5 3.9,46.5 9.8,46.5 9.8,52.8 11.8,52.8 
		11.8,46.4 17.7,46.4 	"/>
	<g>
		<path class="st0" d="M106,81.5c0.7,0.4,1.5,0.6,2.3,0.6c1.7,0,2.6-0.8,2.6-2c0-0.7-0.3-1.3-0.9-1.7c-0.5-0.3-1.1-0.5-1.7-0.7
			s-0.9-0.5-0.9-0.7c0-0.3,0.3-0.5,1-0.5c0.6,0,1.3,0.2,2.2,0.7v-1.4c-0.8-0.4-1.5-0.5-2.3-0.5c-1.5,0-2.5,0.8-2.5,1.9
			c0,1.2,0.8,1.8,2.5,2.4c0.6,0.2,0.9,0.3,0.9,0.7s-0.3,0.6-1,0.6c-0.8,0-1.4-0.3-2.3-0.8v1.4H106z"/>
		<path class="st0" d="M138.7,78.7c0,1,0.4,1.8,1,2.5c0.7,0.6,1.5,1,2.6,1s1.9-0.3,2.6-1c0.7-0.6,1-1.5,1-2.5s-0.4-1.8-1-2.5
			c-0.7-0.6-1.5-0.9-2.6-0.9s-1.9,0.3-2.6,0.9C139.1,76.8,138.7,77.7,138.7,78.7 M140.4,78.7c0-1.2,0.8-2,1.9-2c1.1,0,1.9,0.8,1.9,2
			s-0.8,2-1.9,2S140.4,79.9,140.4,78.7"/>
		<polygon class="st0" points="175.5,82 177.2,82 177.2,79.2 179.6,79.2 179.6,78 177.2,78 177.2,76.6 179.8,76.6 179.8,75.3 
			175.5,75.3 		"/>
		<polygon class="st0" points="210.9,82 212.6,82 212.6,76.6 214.8,76.6 214.8,75.3 208.7,75.3 208.7,76.6 210.9,76.6 		"/>
		<polygon class="st0" points="244.4,82 245.1,82 246.6,77.9 248.1,82 248.8,82 251.5,75.3 249.7,75.3 248.4,79 247.1,75.3 
			246,75.3 244.7,78.9 243.4,75.3 241.7,75.3 		"/>
		<path class="st0" d="M276.6,82h1.8l0.5-1.3h2.9l0.5,1.3h1.8l-2.6-6.7h-2L276.6,82z M279.4,79.6l1-2.5l0.9,2.5H279.4z"/>
		<path class="st0" d="M311,82h1.7v-2.7c0.1,0,0.1,0,0.2,0c0.7,0,0.9,0.2,1.2,0.8l0.8,1.9h1.9l-1.1-2.3c-0.2-0.4-0.5-0.7-0.8-0.8
			c0.8-0.4,1.2-0.9,1.2-1.6c0-1.3-0.9-1.9-2.7-1.9h-2.5L311,82L311,82z M313.5,78.1h-0.8v-1.5h0.8c0.6,0,0.9,0.3,0.9,0.8
			C314.4,77.8,314.1,78.1,313.5,78.1"/>
		<polygon class="st0" points="344.5,82 349,82 349,80.7 346.1,80.7 346.1,79.2 348.8,79.2 348.8,77.9 346.1,77.9 346.1,76.6 
			348.9,76.6 348.9,75.3 344.5,75.3 		"/>
		<path class="st0" d="M191.3,40.1c2.3-0.9,4.3-1.2,5.6-1.2c6.5,0,10.9,4.6,10.9,11.7c0,7.4-4.6,11.8-12.8,11.8
			c-2.8,0-5.6-0.5-8.5-1.5L186.4,28h4.9L191.3,40.1L191.3,40.1z M195.5,57.9c4.5,0,7.2-2.6,7.2-7.2c0-4.6-2.6-7.3-6.7-7.3
			c-1.8,0-3.5,0.6-4.7,1.2v12.6C192.8,57.7,194.2,57.9,195.5,57.9"/>
		<rect x="228" y="23.4" class="st0" width="4.8" height="43.1"/>
		<path class="st0" d="M259.5,48.1h11c-0.1-2.9-1.7-4.5-4.5-4.7C263.2,43.2,260.4,45.1,259.5,48.1 M264.9,62.5
			c-7.4-0.7-11-5.9-10.8-12.1c0.2-6.7,4.5-11.4,11.1-11.4c6.9,0,10.9,5.1,10.6,12.7h-16.6c0.4,4.2,2.9,6.2,6.3,6.4
			c2.9,0.2,6.9-0.4,9.1-1.8v4.6C271.7,62.2,268.7,62.9,264.9,62.5"/>
		<path class="st0" d="M347.2,58.7c3.1,0,5.1-1.6,5.1-5V39.4h4.9v14.9c0,5-3.9,8-10,8s-10-3-10-8V39.4h4.9v14.3
			C342.1,57.1,344.2,58.7,347.2,58.7"/>
		<path class="st0" d="M154.3,62.4c-8.1,0-12.8-4.3-12.8-11.8c0-7.2,4.4-11.7,10.9-11.7c2.2,0,4,0.5,5.6,1.5v-1.6h4.9l-0.1,22.1
			C160.8,61.8,157.4,62.4,154.3,62.4 M153.8,57.9c1.1,0,2.5-0.1,4.2-0.5l0.1-12.5c-1.6-1.1-3.1-1.6-4.7-1.6c-4.1,0-6.7,2.7-6.7,7.3
			C146.7,55.3,149.3,58,153.8,57.9"/>
		<path class="st0" d="M308.2,62.4c-8.1,0-12.8-4.3-12.8-11.8c0-7.2,4.4-11.7,10.9-11.7c2.2,0,4,0.5,5.6,1.5v-1.6h4.9l-0.1,22.1
			C314.6,61.8,311.2,62.4,308.2,62.4 M307.7,57.9c1,0,2.5-0.1,4.2-0.5l0.1-12.5c-1.6-1.1-3.1-1.6-4.7-1.6c-4.1,0-6.7,2.7-6.7,7.3
			C300.5,55.3,303.1,57.9,307.7,57.9"/>
	</g>
	<g>
		<polygon class="st0" points="105.3,29.6 110.2,29.6 110.2,43.2 123.2,43.2 123.2,47.7 110.2,47.7 110.2,62.6 105.3,62.6 
			105.3,47.7 92.3,47.7 92.3,43.2 105.3,43.2 		"/>
		<path class="st0" d="M365.2,39.2c1.6,0,2.8,1.3,2.8,2.9c0,1.6-1.3,2.9-2.8,2.9c-1.6,0-2.9-1.3-2.9-2.9
			C362.4,40.5,363.7,39.2,365.2,39.2L365.2,39.2z M365.2,39.6c-1.3,0-2.3,1.1-2.3,2.4c0,1.4,1,2.5,2.3,2.5s2.3-1.1,2.3-2.4
			C367.6,40.7,366.5,39.6,365.2,39.6L365.2,39.6z M364.7,43.8h-0.5v-3.2c0.3,0,0.5-0.1,0.9-0.1c0.5,0,0.8,0.1,1,0.2
			c0.2,0.1,0.3,0.4,0.3,0.7c0,0.4-0.3,0.7-0.6,0.8l0,0c0.3,0.1,0.5,0.3,0.5,0.8c0.1,0.5,0.2,0.7,0.2,0.8H366
			c-0.1-0.1-0.2-0.4-0.2-0.8c-0.1-0.4-0.3-0.6-0.7-0.6h-0.4L364.7,43.8L364.7,43.8z M364.7,42h0.4c0.4,0,0.8-0.2,0.8-0.6
			c0-0.3-0.2-0.6-0.8-0.6c-0.2,0-0.3,0-0.4,0V42z"/>
	</g>
</g>
</svg>
