<?xml version="1.0" encoding="UTF-8" standalone="no"?>
<svg width="18px" height="15px" viewBox="0 0 18 15" version="1.1" xmlns="http://www.w3.org/2000/svg" xmlns:xlink="http://www.w3.org/1999/xlink" xmlns:sketch="http://www.bohemiancoding.com/sketch/ns">
    <!-- Generator: Sketch 3.5.2 (25235) - http://www.bohemiancoding.com/sketch -->
    <title>Path</title>
    <desc>Created with Sketch.</desc>
    <defs></defs>
    <g id="Welcome" stroke="none" stroke-width="1" fill="none" fill-rule="evenodd" sketch:type="MSPage">
        <g id="Contact-Us" sketch:type="MSArtboardGroup" transform="translate(-778.000000, -555.000000)" fill="#72AC94">
            <g id="Group-7" sketch:type="MSLayerGroup" transform="translate(778.000000, 548.000000)">
                <path d="M8.74002711,10.9569978 L8.77904509,11.6003859 L8.12874545,11.5216037 C5.76165478,11.2196052 3.69370193,10.1954364 1.93789292,8.47535791 L1.0794974,7.62188387 L0.85839552,8.25214162 C0.390179782,9.65709119 0.689317614,11.140823 1.66476707,12.1387311 C2.18500678,12.6902066 2.06795284,12.7689888 1.17053935,12.4407296 C0.85839552,12.3356866 0.585269673,12.2569044 0.559257687,12.2962955 C0.468215738,12.3882081 0.780359563,13.5830718 1.02747343,14.0557651 C1.36562924,14.7122836 2.05494685,15.3556717 2.80929443,15.7364524 L3.44658807,16.0384509 L2.69224049,16.0515813 C1.9639049,16.0515813 1.93789292,16.0647116 2.01592887,16.3404494 C2.27604873,17.1939234 3.30352215,18.099919 4.44804951,18.4938301 L5.25442106,18.7695678 L4.55209745,19.1897397 C3.51161804,19.7937367 2.28905472,20.1351263 1.0664914,20.161387 C0.481221731,20.1745174 -1.77635684e-14,20.2270389 -1.77635684e-14,20.26643 C-1.77635684e-14,20.3977337 1.58673111,21.1330344 2.5101566,21.4219025 C5.28043305,22.2753766 8.57094921,21.9077262 11.0420878,20.4502552 C12.7978968,19.4129559 14.5537059,17.3514879 15.3730834,15.3556717 C15.8152872,14.2921117 16.2574909,12.348817 16.2574909,11.4165607 C16.2574909,10.8125637 16.2965089,10.7337815 17.0248445,10.0116112 C17.4540422,9.59143934 17.857228,9.1318764 17.935264,9.0005727 C18.0653239,8.75109567 18.0523179,8.75109567 17.3890123,8.97431196 C16.2835029,9.36822305 16.127431,9.31570158 16.6736827,8.72483493 C17.0768684,8.3046631 17.5580902,7.54310165 17.5580902,7.31988537 C17.5580902,7.28049426 17.3630003,7.34614611 17.1418984,7.46431944 C16.9077905,7.59562313 16.3875508,7.79257868 15.9973711,7.91075201 L15.2950474,8.13396829 L14.6577538,7.70066609 C14.306592,7.46431944 13.8123643,7.20171204 13.5522444,7.12292982 C12.8889388,6.93910464 11.8744714,6.96536538 11.2761957,7.1754513 C9.6504466,7.76631794 8.62297318,9.28944084 8.74002711,10.9569978 Z" id="Path" sketch:type="MSShapeGroup"></path>
            </g>
        </g>
    </g>
</svg>