<?xml version="1.0" encoding="utf-8"?>
<!-- Generator: Adobe Illustrator 19.2.0, SVG Export Plug-In . SVG Version: 6.00 Build 0)  -->
<svg version="1.1" id="Layer_1" xmlns:sketch="http://www.bohemiancoding.com/sketch/ns"
	 xmlns="http://www.w3.org/2000/svg" xmlns:xlink="http://www.w3.org/1999/xlink" x="0px" y="0px" viewBox="0 0 75 17"
	 style="enable-background:new 0 0 75 17;" xml:space="preserve">
<style type="text/css">
	.st0{fill:none;stroke:#FEFEFE;}
</style>
<title>Group 8</title>
<desc>Created with Sketch.</desc>
<g id="Welcome" sketch:type="MSPage">
	<g id="Group-8" transform="translate(1.000000, 3.000000)" sketch:type="MSLayerGroup">
		<path id="Stroke-15" sketch:type="MSShapeGroup" class="st0" d="M-1,0.5c4.4,7.8,11.5,3.1,12.4,0c3.4,6.8,10.8,4.6,12.6,0
			c5.4,8.2,11.6,2.8,12.7,0C40,8,47.8,4.4,49,0.5c3.2,7.3,11.5,4.1,12.4,0c4.8,8.1,11.5,3.4,12.6,0"/>
		<path id="Stroke-21" sketch:type="MSShapeGroup" class="st0" d="M-1,8.6c4.4,7.8,11.5,3.1,12.4,0c3.4,6.8,10.8,4.6,12.6,0
			c5.4,8.2,11.6,2.9,12.7,0c3.4,7.5,11.2,4,12.4,0c3.2,7.3,11.5,4.1,12.4,0c4.8,8.1,11.5,3.4,12.6,0"/>
	</g>
</g>
</svg>
