<?xml version="1.0" encoding="UTF-8" standalone="no"?>
<svg width="16px" height="20px" viewBox="0 0 16 20" version="1.1" xmlns="http://www.w3.org/2000/svg" xmlns:xlink="http://www.w3.org/1999/xlink" xmlns:sketch="http://www.bohemiancoding.com/sketch/ns">
    <!-- Generator: Sketch 3.5.2 (25235) - http://www.bohemiancoding.com/sketch -->
    <title>Group 16</title>
    <desc>Created with Sketch.</desc>
    <defs></defs>
    <g id="Welcome" stroke="none" stroke-width="1" fill="none" fill-rule="evenodd" sketch:type="MSPage">
        <g id="Contact-Us" sketch:type="MSArtboardGroup" transform="translate(-781.000000, -688.000000)" fill="#72AC94">
            <g id="Group-11" sketch:type="MSLayerGroup" transform="translate(781.000000, 683.000000)">
                <g id="Group-10" transform="translate(0.000000, 5.000000)" sketch:type="MSShapeGroup">
                    <g id="Group-16">
                        <path d="M15.2222072,9.79658325 C15.9916759,10.5844545 16,14.473983 16,14.4964551 C16,14.4964551 15.9937664,18.4062323 15.2222072,19.196843 C14.4559313,19.9830467 7.99690221,20 7.99690221,20 C7.99690221,20 1.53878535,19.9830467 0.770494958,19.1968827 C0.00212854411,18.4089718 0,14.5259546 0,14.4964551 C0,14.4740624 0.00209053439,10.5844545 0.770494958,9.79658325 C1.53886137,9.00990312 7.99690221,8.99942146 7.99690221,9.00001701 C7.99690221,8.99942146 14.4559313,9.00990312 15.2222072,9.79658325 Z M3.67751607,17.7385825 L2.62540712,17.7385825 L2.62540712,12.0880164 L1.53772108,12.0880164 L1.53772108,11.1279125 L4.7651641,11.1279125 L4.7652021,12.0880164 L3.67751607,12.0880164 L3.67751607,17.7385825 Z M6.90807588,17.202271 C6.73433346,17.4012637 6.55633396,17.5516199 6.36898407,17.6544513 C6.18262243,17.7594664 6.0025324,17.809691 5.82666144,17.809691 C5.60993004,17.809691 5.44975709,17.7386222 5.33884474,17.5921569 C5.23101118,17.4460887 5.17551699,17.2302221 5.17551699,16.9387606 L5.17551699,12.8610783 L6.10831344,12.8610783 L6.10831344,16.6019579 C6.10831344,16.7178517 6.12819252,16.8009506 6.16593617,16.8523266 C6.2067586,16.9048143 6.27061493,16.9299862 6.35750514,16.9299862 C6.42558054,16.9299862 6.51349701,16.8955237 6.61817577,16.8271945 C6.7239188,16.7582696 6.81917115,16.6718754 6.90811389,16.5663838 L6.90811389,12.8611577 L7.84087232,12.8611577 L7.84083431,17.7386222 L6.90807588,17.7386222 L6.90807588,17.202271 Z M10.3722054,17.800321 C10.1889986,17.800321 10.0266971,17.7659777 9.88431268,17.6948692 C9.7420043,17.6238401 9.60687976,17.5144577 9.48551473,17.364697 L9.48551473,17.7386222 L8.54234164,17.7386222 L8.54234164,11.1279125 L9.48551473,11.1279125 L9.48551473,13.2563639 C9.61216311,13.1087075 9.7451211,12.9944415 9.88541496,12.9179731 C10.0277233,12.8403532 10.171248,12.8020396 10.3156089,12.8020396 C10.6118947,12.8020396 10.8369882,12.905943 10.9919158,13.1126381 C11.1489339,13.3209213 11.2264358,13.6254452 11.2264358,14.024582 L11.2264358,16.7309538 C11.2263597,17.0758956 11.153001,17.3405574 11.0065495,17.5248599 C10.8610484,17.7095991 10.648574,17.800321 10.3722054,17.800321 Z M12.6772666,16.3356683 C12.6772666,16.5926674 12.7077124,16.7703394 12.7683379,16.8703916 C12.83113,16.9693321 12.9358087,17.0180877 13.0845027,17.0180877 C13.2393543,17.0180877 13.3472259,16.9759228 13.4089917,16.8917519 C13.4697312,16.8075413 13.5021535,16.6227624 13.5021535,16.3356683 L13.5021535,16.1131713 L14.4621269,16.1131713 L14.4621269,16.3636193 C14.4621269,16.86392 14.3458552,17.2405847 14.110385,17.4948045 C13.8780316,17.7463246 13.5283042,17.8714692 13.0635594,17.8714692 C12.6458326,17.8714692 12.3160603,17.7385825 12.076333,17.469593 C11.8365297,17.2023107 11.7150887,16.8337058 11.7150887,16.3635796 L11.7150887,14.1733103 C11.7150887,13.751781 11.8480467,13.4051319 12.1118721,13.1393981 C12.3756215,12.8731481 12.7148202,12.7403011 13.1336113,12.7403011 C13.5606885,12.7403011 13.8894345,12.8638179 14.1186711,13.1104147 C14.3479077,13.356416 14.4620889,13.7107278 14.4620889,14.1733103 L14.4620889,15.4165778 L12.6772666,15.4166175 L12.6772666,16.3356683 Z M10.1669909,13.7030651 C10.2328618,13.788308 10.2653601,13.9134923 10.2653601,14.078102 L10.2653601,16.5964392 C10.2653601,16.7533067 10.2370809,16.8637611 10.1837912,16.9321301 C10.1304256,17.002127 10.0466142,17.0365894 9.932509,17.0365894 C9.85299267,17.0365894 9.77868368,17.0179289 9.70741546,16.9835458 C9.63523501,16.9495996 9.56084999,16.890005 9.48551473,16.8113132 L9.48551473,13.7725458 C9.54933305,13.7052885 9.61318937,13.6555403 9.67807196,13.6237777 C9.74303056,13.5909828 9.80893941,13.5762132 9.87591253,13.5762132 C10.0014966,13.5762132 10.0989155,13.6188545 10.1669909,13.7030651 Z M12.7736213,13.7282369 C12.7087387,13.8134401 12.6773426,13.9610965 12.6773426,14.1650918 L12.6773426,14.6576899 L13.5022675,14.6576899 L13.5022675,14.1650918 C13.5022675,13.9611362 13.468781,13.8135592 13.4038224,13.7282369 C13.3410303,13.6368798 13.2353253,13.5937223 13.0939671,13.5937223 C12.9453492,13.5937223 12.8385799,13.6368798 12.7736213,13.7282369 Z" id="Path"></path>
                        <path d="M2,0 L3.41397379,4.14928465 L3.41397379,6.87197521 L4.60204464,6.87197521 L4.60204464,4.02081025 L5.98448822,0 L4.77649149,0 L4.0427459,2.74693172 L3.96808112,2.74693172 L3.19639238,0 L2,0 Z M7.64138974,1.674326 C8.07765956,1.674326 8.43621082,1.79706794 8.71586019,2.04270169 C8.99337192,2.28777344 9.13323478,2.60403252 9.13323478,2.99050479 L9.13323478,5.60944918 C9.13323478,6.04283015 8.99657838,6.38235625 8.72429624,6.62952615 C8.44880764,6.87613405 8.07349879,7 7.59306377,7 C7.13259279,7 6.76255171,6.87201267 6.48496363,6.61824858 C6.2095132,6.363323 6.06972669,6.02023754 6.06972669,5.58944179 L6.06965034,2.96210479 C6.06965034,2.56843886 6.2115745,2.25577661 6.49649163,2.02359351 C6.78037811,1.79088588 7.16301602,1.674326 7.64138974,1.674326 Z M7.59088795,6.12173569 C7.7339191,6.12173569 7.84637434,6.08258265 7.93153646,6.00566287 C8.01570612,5.92720694 8.05777186,5.82046341 8.05777186,5.68524495 L8.05777186,2.9233639 C8.05777186,2.812499 8.01459912,2.7232151 7.92840635,2.65457553 C7.84221357,2.58649796 7.72972016,2.55292751 7.59088795,2.55292751 C7.46159879,2.55292751 7.35754143,2.58649796 7.27657825,2.65457553 C7.19668388,2.7232151 7.15568696,2.81242406 7.15568696,2.9233639 L7.15568696,5.68528242 C7.15564879,5.82406025 7.19454624,5.93084124 7.26917284,6.00772356 C7.34383762,6.08408134 7.45110144,6.12173569 7.59088795,6.12173569 Z M11.944463,6.87201267 L11.944463,6.31221799 C11.752037,6.51806178 11.5491901,6.67650979 11.3377925,6.78377785 C11.1275402,6.89160792 10.9235481,6.94533562 10.7258544,6.94533562 C10.479911,6.94533562 10.2979824,6.86946492 10.1739992,6.71881005 C10.0509703,6.56763064 9.98894048,6.34166707 9.98894048,6.03927078 L9.98894048,1.80223839 L11.0423399,1.80223839 L11.0423399,5.68887925 C11.0423399,5.80911091 11.0665792,5.89577211 11.1107063,5.94942488 C11.1538026,6.00315258 11.2263298,6.03042857 11.3251957,6.03042857 C11.4019218,6.03042857 11.5007877,5.99434783 11.6195414,5.92364757 C11.7372644,5.85246024 11.8466277,5.76156526 11.9443866,5.65017583 L11.9443866,1.80223839 L13,1.80223839 L13,6.87201267 L11.944463,6.87201267 Z" id="Path"></path>
                    </g>
                </g>
            </g>
        </g>
    </g>
</svg>