<?xml version="1.0" encoding="utf-8"?>
<!-- Generator: Adobe Illustrator 19.2.0, SVG Export Plug-In . SVG Version: 6.00 Build 0)  -->
<svg version="1.1" id="Layer_1" xmlns="http://www.w3.org/2000/svg" xmlns:xlink="http://www.w3.org/1999/xlink" x="0px" y="0px"
	 viewBox="0 0 180 95" style="enable-background:new 0 0 180 95;" xml:space="preserve">
<style type="text/css">
	.st0{fill:#FFFFFF;}
	.st1{fill:#676767;}
</style>
<rect x="0.6" y="-42.2" class="st0" width="178.9" height="178.9"/>
<g>
	<path class="st1" d="M-1.7-42.2v178.9h183.4V-42.2H-1.7z"/>
</g>
<g id="Layer_2">
	<g>
		<path class="st0" d="M70.8,26.9C84.4,15.6,98.3,5.6,101.3,5.6c1.3,0,9.8,5.5,19.3,12.4C111.7,18.7,83.9,22.9,70.8,26.9z"/>
		<path class="st0" d="M123,58.8c-2.6,7.1-5.1,13.6-5.3,13.9C92.3,73.8,71.1,79,47.9,86.2c0.5-2,2-6.4,3.8-11.5
			C69.4,67,102,59.1,123,58.8z"/>
		<path class="st0" d="M44.2,51.9c2.5-3,6.4-6.9,10.9-11.1c5-2.4,29.1-9.3,45.2-12.4c-9.8,8.3-39.9,35.9-47.2,42.8
			c3.5-9.6,7.8-20.1,8.8-21.8C56.4,50.1,47.5,51.4,44.2,51.9z"/>
		<path class="st0" d="M123.1,19.6c10.4,7.5,21.5,16,25.7,20.2c-4.4-0.1-16,0.6-19.3,1.1c-0.1,0.3-1.3,3.5-2.8,7.7
			c-13.4,0.7-31.8,3.5-42.1,7.7C91.7,48.6,113.1,27.3,123.1,19.6z"/>
	</g>
</g>
</svg>
